<svg id="Capa_1" enable-background="new 0 0 512.12 512.12" height="512" viewBox="0 0 512.12 512.12" width="512" xmlns="http://www.w3.org/2000/svg"><g><path d="m256.06 0-20.001 257.844 20.001 254.276c60.366 0 117.12-23.508 159.805-66.193 42.686-42.685 66.193-99.438 66.193-159.805v-221.853z" fill="#07485e"/><path d="m30.062 64.269v221.853c0 60.366 23.508 117.12 66.193 159.805 42.685 42.686 99.438 66.193 159.805 66.193v-512.12z" fill="#0b799d"/><path d="m256.06 62.379-20.001 195.465 20.001 194.276c91.532 0 165.998-74.466 165.998-165.998v-176.537z" fill="#b4d2d7"/><path d="m90.062 109.585v176.537c0 91.532 74.466 165.998 165.998 165.998v-389.741z" fill="#e1ebf0"/><path d="m256.06 93.568-20.001 164.275 20.001 164.277c74.99 0 135.998-61.008 135.998-135.998v-153.878z" fill="#e1ebf0"/><path d="m120.062 132.244v153.878c0 74.99 61.008 135.998 135.998 135.998v-328.552z" fill="#fff5f5"/><path d="m362.056 272.547v-30h-31.494c-1.976-9.832-5.858-18.981-11.24-27.05l22.294-22.294-21.213-21.213-22.294 22.294c-8.069-5.381-17.218-9.263-27.05-11.24v-31.494h-15l-20.001 106.293 20.001 105.699h15v-31.494c9.832-1.976 18.981-5.858 27.05-11.24l22.294 22.294 21.213-21.213-22.294-22.294c5.381-8.069 9.263-17.218 11.24-27.05h31.494z" fill="#2fc0f0"/><path d="m241.06 151.551v31.494c-9.832 1.976-18.981 5.858-27.05 11.24l-22.294-22.294-21.213 21.213 22.294 22.294c-5.381 8.069-9.263 17.218-11.24 27.05h-31.494v30h31.494c1.976 9.832 5.858 18.981 11.24 27.05l-22.294 22.294 21.213 21.213 22.294-22.294c8.069 5.381 17.218 9.263 27.05 11.24v31.494h15v-211.994z" fill="#7ed8f6"/><path d="m256.06 211.551-20.001 46.293 20.001 45.699c25.362 0 45.996-20.634 45.996-45.996s-20.634-45.996-45.996-45.996z" fill="#7ed8f6"/><path d="m210.064 257.547c0 25.362 20.634 45.996 45.996 45.996v-91.992c-25.362 0-45.996 20.634-45.996 45.996z" fill="#beebfa"/></g></svg>